HIERARCHY
ROOT Hips
{
    OFFSET 7.691546440124512 91.22733306884766 -17.542694091796875
    CHANNELS 6 Xposition Yposition Zposition Zrotation Xrotation Yrotation
    JOINT RightUpLeg
    {
        OFFSET -7.691546440124512 0.0 0.0
        CHANNELS 3 Zrotation Xrotation Yrotation
        JOINT RightLeg
        {
            OFFSET 0.0 -47.37059783935547 0.0
            CHANNELS 3 Zrotation Xrotation Yrotation
            JOINT RightFoot
            {
                OFFSET 0.0 -43.85673522949219 0.0
                CHANNELS 3 Zrotation Xrotation Yrotation
                End Site
                {
                    OFFSET 0.0 0.0 17.542694091796875
                }
            }
        }
    }
    JOINT LeftUpLeg
    {
        OFFSET 7.691546440124512 0.0 0.0
        CHANNELS 3 Zrotation Xrotation Yrotation
        JOINT LeftLeg
        {
            OFFSET 0.0 -47.37059783935547 0.0
            CHANNELS 3 Zrotation Xrotation Yrotation
            JOINT LeftFoot
            {
                OFFSET 0.0 -43.85673522949219 0.0
                CHANNELS 3 Zrotation Xrotation Yrotation
                End Site
                {
                    OFFSET 0.0 0.0 17.542694091796875
                }
            }
        }
    }
    JOINT Spine
    {
        OFFSET 0.0 24.130788803100586 0.0
        CHANNELS 3 Zrotation Xrotation Yrotation
        JOINT Spine3
        {
            OFFSET 0.0 21.268251419067383 0.0
            CHANNELS 3 Zrotation Xrotation Yrotation
            JOINT Neck
            {
                OFFSET 0.0 8.55947494506836 0.0
                CHANNELS 3 Zrotation Xrotation Yrotation
                End Site
                {
                    OFFSET 0.0 3.4237899780273438 0.0
                }
            }
            JOINT LeftArm
            {
                OFFSET 8.762726783752441 0.0 0.0
                CHANNELS 3 Zrotation Xrotation Yrotation
                JOINT LeftForeArm
                {
                    OFFSET 22.766155242919922 0.0 0.0
                    CHANNELS 3 Zrotation Xrotation Yrotation
                    JOINT LeftHand
                    {
                        OFFSET 16.000516891479492 0.0 0.0
                        CHANNELS 3 Zrotation Xrotation Yrotation
                        End Site
                        {
                            OFFSET 6.400206565856934 0.0 0.0
                        }
                    }
                }
            }
            JOINT RightArm
            {
                OFFSET -8.762726783752441 0.0 0.0
                CHANNELS 3 Zrotation Xrotation Yrotation
                JOINT RightForeArm
                {
                    OFFSET -22.766155242919922 0.0 0.0
                    CHANNELS 3 Zrotation Xrotation Yrotation
                    JOINT RightHand
                    {
                        OFFSET -16.000516891479492 0.0 0.0
                        CHANNELS 3 Zrotation Xrotation Yrotation
                        End Site
                        {
                            OFFSET -6.400206565856934 0.0 0.0
                        }
                    }
                }
            }
        }
    }
}
MOTION
Frames: 9
Frame Time: 0.03333333333333333
-0.0011199176078662276 95.37853240966797 -0.0026295369025319815 0.5500184922903761 5.54405469731656 -104.5167288101339 -0.5030293106100743 -1.6651451536449247 -0.3310853997320931 -4.0230756824564455 -1.6796490428030952 -0.43307471071119985 0.0 0.0 -3.578124016646456e-15 -6.720298236037435 -5.1099006421954165 -1.4823827549306583 0.7654498452167883 3.0993033621645183 0.8664049225688111 0.0 0.0 8.150171371250262e-15 24.791428482386873 1.0676416360721193 -0.2851272686736395 -1.014583096924026e-06 -2.169978657925041e-06 -14.995293207684966 78.93768833277403 -59.75031086170871 -128.64767209159083 66.47383573992163 24.875914463487334 161.1595170653182 -4.2093350296249984e-07 -3.3651666642148193e-07 27.496988486965076 -6.3611093629270335e-15 -1.7655625192200634e-31 3.1805546814635168e-15 -147.96196476234135 -24.984257922685483 -170.86663968289153 6.2448127368626645e-06 -4.247797918828729e-06 -108.86508333411408 -2.3854160110976376e-15 -6.2617170291312985e-15 7.951386703658791e-16
-0.0010706299217417836 95.37849426269531 -0.00252051604911685 0.07263120851691159 5.442700231974923 -98.6915914986415 -1.567668665301642 0.38331721459922546 0.06270362730910463 -3.8592632013010153 -2.1139858566496983 -0.6284922267686053 -7.951386703658791e-16 -1.5902773407317584e-15 8.845917707820405e-15 -8.085320761041977 -2.88490504528926 -0.9685281968190583 2.182754864914235 1.2393485627654486 0.3740366025022396 -1.5902773407317582e-15 7.951386703658791e-16 -6.957463365701442e-16 22.72449069782363 -2.2301487890203164 0.4616711180729676 4.472932256120169e-07 3.734482167291938e-07 -19.802541002801853 89.23208904127416 -72.93122816953407 -53.0495147345321 57.864065642431974 5.655042915483802 162.39473138584526 1.3076384098704116e-06 2.8462844657094515e-06 24.625672974800963 0.0 0.0 9.54166404439055e-15 -126.26946978876356 -48.526799906034505 -159.1488060080789 -3.6020838579409558e-06 -1.3813586457353013e-06 -81.21548115105747 6.3611093629270335e-15 -7.951386703658791e-16 1.5902773407317584e-15
-0.000974346767179668 95.37873077392578 -0.0024418740067631006 -0.2592329322594277 7.027698347828878 -105.62728024057269 -0.656545102932223 -0.44159571942510367 -0.1533080289046392 -1.7670257124622801 -2.3596247914855324 -0.7562535073884132 -7.951386703658792e-16 -1.3103784322336408e-32 1.888454342118963e-15 -7.273822019322202 -4.0002556495235995 -1.6202897818519346 2.149302413279625 0.6864594412041413 0.2526378276504046 -7.951386703658792e-16 1.1034765745125397e-32 -1.5902773407317584e-15 23.177940918726033 -0.3246495706283842 0.045238738129559974 -1.851431116406234e-07 -4.217360649353508e-07 -16.573362575849217 73.44117497798764 -56.973954591713834 -107.94845475062063 50.77590830406392 -31.569265404933454 165.6551632304275 2.2337068367622586e-06 -2.4999242976860907e-06 29.906130935601716 6.3611093629270335e-15 -2.84145217936979e-31 -5.118705190480348e-15 -117.16456674499436 -42.372888907880494 -157.21953026091154 -3.216387548918039e-06 -6.901306039834435e-07 -58.48197198186325 0.0 -6.3611093629270335e-15 0.0
-0.0011477865045890212 95.37798309326172 -0.002120277378708124 0.027380833366724335 4.9498796864804575 -119.73507242219172 -2.7537069282015687 -1.7223021018603775 -0.5674528755234762 -2.2435214254248916 -5.38315876670405 -1.8759536484325838 0.0 0.0 1.4908850069360234e-15 -6.057774613989931 -5.045046186286084 -1.7965063235164858 2.2948378327933137 0.518304567544066 0.16514314442933095 0.0 0.0 2.3854160110976376e-15 19.76314874414559 2.2098973727236824 -0.2182199738545838 -4.7062632136771306e-07 -2.431861347585648e-07 -13.544720920210118 61.95447754056305 -52.807836675160495 -154.23522431019563 28.360195933260773 -71.59753196143045 149.2052018134757 -3.437839853230586e-06 8.794602568829544e-06 19.389336190289647 -1.6552148617688094e-31 5.9635400277440935e-15 3.1805546814635168e-15 -136.5511574381755 -74.6168055075349 177.27834524985596 2.941484360401719e-06 3.6460975034229843e-07 -53.25481374650941 -6.361109362927035e-15 -6.361109362927035e-15 -3.531125038440127e-31
-0.0014540015254169703 95.37727355957031 -0.002099278150126338 0.23053842160084553 5.4585586904921755 -110.59208991304217 -1.7915778614365574 -0.2642280460713558 -0.12058619098410142 -1.5624443169023106 -6.956268620032601 -2.5410946360989812 -7.951386703658792e-16 -1.5902773407317584e-15 -8.945310041616142e-16 -4.569642579326559 -4.214849064219252 -1.5966851705865337 -0.15206134585995942 2.30963608620815 0.8977427308799808 3.724233438979821e-32 7.951386703658791e-16 -5.3671860249696836e-15 21.114709087306775 0.6013998751754066 -0.04666909186017597 -6.352004513225878e-07 -5.569314842985957e-07 -17.546264464649376 69.05926165194542 -36.21764245360327 -178.73318141543768 -4.199716007406214 -77.62695094959557 121.69503246407426 3.926930213082099e-06 -5.8814465630203785e-06 17.659761875625446 -6.3611093629270335e-15 1.987846675914698e-16 1.1034765745125397e-32 -147.4537273322953 -66.20847195445067 175.2669014176065 -1.824698570128703e-06 -1.5786019793511188e-06 -80.22909596813251 -1.5902773407317584e-15 3.975693351829396e-16 -3.1805546814635168e-15
-0.0011066598817706108 95.37726593017578 -0.002172857755795121 0.5778653138307397 2.6654675621322927 -102.29054065520486 -4.111160977442397 -0.22060485873845784 -0.13182656203191095 -2.3699089340285076 -5.8516067760588015 -2.7155402310497423 -7.951386703658794e-16 1.8621167194899106e-32 -2.683593012484843e-15 -7.336323305052167 -5.2153322527325505 -2.442465666073343 1.8628839830476072 1.6153032600909156 0.7033609225845754 -1.6207312188152926e-32 7.95138670365879e-16 2.3357198441997697e-15 17.403381582716786 -4.144642306508375 -0.06617946630610445 -1.3084955669552915e-07 -1.4876208184535305e-06 -25.909624866114804 77.89775167142545 -43.307226132404715 -166.7578263406555 52.50791822271574 -47.702847007013844 169.07863513096567 1.1581114087424511e-06 4.568149856442604e-08 9.81158019720947 6.361109362927035e-15 0.0 0.0 -143.47117091299174 -72.74224688738987 172.24646198091924 -1.345708056279317e-08 -9.45909204944074e-07 -87.25168484584555 -1.987846675914698e-15 -1.987846675914698e-16 1.1927080055488188e-15
8.172719390131533e-06 95.37864685058594 -0.002373663941398263 -2.207333317502782 7.630033856892658 -68.18894383544689 -2.6458657510663874 6.715326656517806 3.7007538754210136 -1.3537814834455444 -5.252738696812584 -3.0242584750078083 -7.951386703658794e-16 -6.138088445726001e-32 8.845917707820407e-15 -2.9056636662320656 -1.424336972037856 -0.7965672211625825 1.09689544155547 4.2031460975458765 2.2004176468049366 0.0 0.0 -1.4908850069360235e-16 15.52396504501112 -10.164496079136534 -1.8757430594191116 -1.1597272257922336e-06 9.862487948121185e-08 -35.23089860842429 74.64504325041887 -54.95963897130874 -178.6306191934271 85.86157871930658 68.95381421315145 137.77603450207954 -6.062108931596122e-07 1.3410000788366752e-06 17.522180226418953 1.5902773407317588e-15 6.620859447075238e-32 4.770832022195277e-15 -97.67966935265794 -74.06515024812312 -158.16793715127343 6.164620392849867e-06 -8.867314780910287e-07 -88.77725883277402 -6.3611093629270335e-15 6.3611093629270335e-15 3.1805546814635168e-15
-7.206017471617088e-05 95.37804412841797 -0.0020022925455123186 0.21984635983181577 4.031507726193339 -31.77121550390238 -1.3641367823039565 4.712080781770806 8.014493347387742 -6.687821517293274 1.7621104713090778 3.897844814328667 0.0 0.0 9.93923337957349e-16 -6.2364621951155454 4.133025390058383 8.190169755110183 -1.1333862660126732 -2.1100847312152946 -4.44040468235761 7.58640144977371e-33 -1.9878466759146977e-16 4.373262687012335e-15 -2.0064426447834784 -14.707292609640785 -23.551377989592762 -9.593064993562039e-08 1.0349791594125278e-06 -71.54430752709762 55.99608189227229 -7.625240111059237 -130.89911903829648 -122.5209168535822 33.326752603963904 0.11613047977593807 7.732459217150132e-07 -7.444226624700193e-07 25.234910577323582 -1.6896696745274934e-15 0.0 0.0 -166.45786759519672 -80.10374612988569 123.73237758670791 1.9849230879185325e-06 1.8165725156261867e-07 -50.74146256039439 -1.8884543421189626e-15 5.241513728934563e-32 -3.1805546814635164e-15
0.0002967272012028843 95.3781967163086 -0.0025965659879148006 5.377418856933822 3.0372365768137324 -73.67704679148915 -2.029880630349401 -2.2134040511733164 -0.4612541735320764 -8.982175802650215 -3.827089902691976 -1.4952299129892443 0.0 0.0 -2.1866313435061676e-15 -11.366523184249552 -3.979648943500433 -1.5868357732738718 -0.701142358957659 0.5960878111809806 0.24183264207708458 3.1805546814635164e-15 -1.590277340731758e-15 4.2738703532166e-15 6.046079060646428 -15.90917111135578 -1.1442314881023006 -4.4667155695031945e-07 -3.6394928600041587e-07 -13.896086956158763 33.792163702972715 -43.745050593626935 -39.99183489088065 -129.80452385737465 38.34648936248378 25.61115555343053 3.5095960660383746e-06 -8.280713984263795e-06 13.163828245734416 1.5902773407317584e-15 3.1805546814635168e-15 -6.3611093629270335e-15 -109.99013818018938 -41.01089853464692 -165.10173171096116 -1.4953527151508e-06 -2.2979701215668817e-06 -71.51317251024813 -7.951386703658791e-16 -2.758691436281349e-32 3.975693351829395e-15
